<svg width="30" height="31" viewBox="0 0 30 31" fill="none" xmlns="http://www.w3.org/2000/svg">
<path fill-rule="evenodd" clip-rule="evenodd" d="M0 24.227V4.54257C0 2.03378 2.01472 0 4.5 0H15C16.6569 0 18 1.35585 18 3.02838H24.5402C26.6855 3.02838 28.5325 4.55718 28.9529 6.68085L29.9114 11.523C29.9694 11.8161 29.9986 12.1142 29.9986 12.4131V17.254C29.9986 18.1502 29.7361 19.0264 29.2439 19.7722L28.7481 20.5237C29.5329 21.5476 30 22.8322 30 24.227C30 27.5721 27.3137 30.2838 24 30.2838C21.2042 30.2838 18.8551 28.3535 18.189 25.7412H11.811C11.1449 28.3535 8.79576 30.2838 6 30.2838C2.68629 30.2838 0 27.5721 0 24.227ZM3 4.54257C3 3.7063 3.67157 3.02838 4.5 3.02838H15V10.5993C15 13.1081 17.0147 15.1419 19.5 15.1419H26.9986V17.254C26.9986 17.5528 26.9111 17.8448 26.7471 18.0934L26.3719 18.662C25.6444 18.3456 24.8425 18.1703 24 18.1703C21.2042 18.1703 18.8551 20.1005 18.189 22.7128H11.811C11.1449 20.1005 8.79576 18.1703 6 18.1703C4.90714 18.1703 3.88252 18.4652 3 18.9806V4.54257ZM21 24.227C21 25.8996 22.3431 27.2554 24 27.2554C25.6569 27.2554 27 25.8996 27 24.227C27 22.5545 25.6569 21.1987 24 21.1987C22.3431 21.1987 21 22.5545 21 24.227ZM18 6.05676V10.5993C18 11.4356 18.6716 12.1135 19.5 12.1135H26.969L26.0111 7.27425C25.8709 6.56636 25.2553 6.05676 24.5402 6.05676H18ZM3 24.227C3 22.5545 4.34315 21.1987 6 21.1987C7.65685 21.1987 9 22.5545 9 24.227C9 25.8996 7.65685 27.2554 6 27.2554C4.34315 27.2554 3 25.8996 3 24.227Z" fill="#F58634"/>
</svg>
