<svg width="27" height="32" viewBox="0 0 27 32" fill="currentColor" xmlns="http://www.w3.org/2000/svg">
<path d="M13.2154 0C7.7247 0 3.30384 4.03284 3.30384 9.04159V10.5485C1.48673 10.5485 0 11.9048 0 13.5624V28.6317C0 30.2893 1.48673 31.6456 3.30384 31.6456H23.1269C24.944 31.6456 26.4307 30.2893 26.4307 28.6317V13.5624C26.4307 11.9048 24.944 10.5485 23.1269 10.5485V9.04159C23.1269 4.03284 18.706 0 13.2154 0ZM13.2154 3.01386C16.9755 3.01386 19.8231 5.61153 19.8231 9.04159V10.5485H6.60769V9.04159C6.60769 5.61153 9.45528 3.01386 13.2154 3.01386ZM13.2154 18.0832C15.0325 18.0832 16.5192 19.4394 16.5192 21.097C16.5192 22.7547 15.0325 24.1109 13.2154 24.1109C11.3983 24.1109 9.91153 22.7547 9.91153 21.097C9.91153 19.4394 11.3983 18.0832 13.2154 18.0832Z" fill="currentColor"/>
</svg>
