<svg width="38" height="35" viewBox="0 0 38 35" fill="none" xmlns="http://www.w3.org/2000/svg">
<path fill-rule="evenodd" clip-rule="evenodd" d="M9.50018 11.4405C6.35218 11.4405 3.80022 8.87944 3.80022 5.72024C3.80022 2.56104 6.35218 0 9.50018 0C12.6482 0 15.2001 2.56104 15.2001 5.72024C15.2001 8.87944 12.6482 11.4405 9.50018 11.4405ZM9.50018 7.62699C8.45085 7.62699 7.6002 6.77331 7.6002 5.72024C7.6002 4.66717 8.45085 3.81349 9.50018 3.81349C10.5495 3.81349 11.4002 4.66717 11.4002 5.72024C11.4002 6.77331 10.5495 7.62699 9.50018 7.62699Z" fill="#F58634"/>
<path fill-rule="evenodd" clip-rule="evenodd" d="M34.2 5.72024C34.2 8.87944 31.648 11.4405 28.5 11.4405C25.352 11.4405 22.8 8.87944 22.8 5.72024C22.8 2.56104 25.352 0 28.5 0C31.648 0 34.2 2.56104 34.2 5.72024ZM30.4 5.72024C30.4 6.77331 29.5493 7.62699 28.5 7.62699C27.4507 7.62699 26.6 6.77331 26.6 5.72024C26.6 4.66717 27.4507 3.81349 28.5 3.81349C29.5493 3.81349 30.4 4.66717 30.4 5.72024Z" fill="#F58634"/>
<path fill-rule="evenodd" clip-rule="evenodd" d="M24.7 17.1607C24.7 20.3199 22.1481 22.881 19.0001 22.881C15.8521 22.881 13.3001 20.3199 13.3001 17.1607C13.3001 14.0015 15.8521 11.4405 19.0001 11.4405C22.1481 11.4405 24.7 14.0015 24.7 17.1607ZM20.9001 17.1607C20.9001 18.2138 20.0494 19.0675 19.0001 19.0675C17.9507 19.0675 17.1001 18.2138 17.1001 17.1607C17.1001 16.1077 17.9507 15.254 19.0001 15.254C20.0494 15.254 20.9001 16.1077 20.9001 17.1607Z" fill="#F58634"/>
<path d="M13.2852 32.6532C13.6338 29.8789 15.2996 28.6012 16.4908 28.6012H21.5093C22.7005 28.6012 24.3664 29.8789 24.715 32.6532C24.8462 33.698 25.7966 34.4382 26.8377 34.3065C27.8788 34.1747 28.6164 33.2209 28.4851 32.1761C28.0042 28.3486 25.3639 24.7877 21.5093 24.7877H16.4908C12.6363 24.7877 9.99598 28.3486 9.51506 32.1761C9.38378 33.2209 10.1213 34.1747 11.1624 34.3065C12.2035 34.4382 13.1539 33.698 13.2852 32.6532Z" fill="#F58634"/>
<path d="M7.70188 17.1607C5.97351 17.1607 4.15004 18.6676 3.7809 21.2454C3.63164 22.2878 2.66863 23.0114 1.62997 22.8616C0.591303 22.7118 -0.129699 21.7453 0.0195641 20.703C0.595786 16.679 3.67987 13.3472 7.70188 13.3472H9.50018C10.5495 13.3472 11.4002 14.2009 11.4002 15.254C11.4002 16.307 10.5495 17.1607 9.50018 17.1607H7.70188Z" fill="#F58634"/>
<path d="M34.2191 21.2454C33.85 18.6676 32.0265 17.1607 30.2981 17.1607H28.4998C27.4505 17.1607 26.5998 16.307 26.5998 15.254C26.5998 14.2009 27.4505 13.3472 28.4998 13.3472H30.2981C34.3201 13.3472 37.4042 16.679 37.9804 20.703C38.1297 21.7453 37.4087 22.7118 36.37 22.8616C35.3314 23.0114 34.3684 22.2878 34.2191 21.2454Z" fill="#F58634"/>
</svg>
