<svg width="35" height="38" viewBox="0 0 35 38" fill="none" xmlns="http://www.w3.org/2000/svg">
<path d="M14.0413 0C11.76 0 9.91153 1.97556 9.91153 4.41367V7.06187H3.30384C1.47847 7.06187 0 8.64196 0 10.5928V17.6547H2.47788C4.75919 17.6547 6.60769 19.6302 6.60769 22.0683C6.60769 24.5065 4.75919 26.482 2.47788 26.482H0V33.5439C0 35.4947 1.47847 37.0748 3.30384 37.0748H9.91153V34.4266C9.91153 31.9885 11.76 30.0129 14.0413 30.0129C16.3226 30.0129 18.1711 31.9885 18.1711 34.4266V37.0748H24.7788C26.6042 37.0748 28.0827 35.4947 28.0827 33.5439V26.482H30.5605C32.8418 26.482 34.6903 24.5065 34.6903 22.0683C34.6903 19.6302 32.8418 17.6547 30.5605 17.6547H28.0827V10.5928C28.0827 8.64196 26.6042 7.06187 24.7788 7.06187H18.1711V4.41367C18.1711 1.97556 16.3226 0 14.0413 0Z" fill="#18181B"/>
</svg>
