<svg width="60" height="61" viewBox="0 0 60 61" fill="none" xmlns="http://www.w3.org/2000/svg">
<path d="M28.5854 0.866378C28.7411 -0.288796 30.4117 -0.288793 30.5674 0.866382L31.946 11.0908C32.0762 12.0565 33.3699 12.2846 33.8226 11.4216L38.6149 2.28536C39.1564 1.25312 40.7262 1.82449 40.4775 2.96327L38.2759 13.0425C38.068 13.9945 39.2057 14.6514 39.9262 13.9953L47.5543 7.04908C48.4161 6.26428 49.6959 7.3381 49.0726 8.32313L43.5566 17.0416C43.0356 17.865 43.88 18.8714 44.7814 18.5013L54.3253 14.583C55.4035 14.1402 56.2388 15.587 55.3163 16.2995L47.151 22.6055C46.3798 23.2011 46.8291 24.4356 47.8027 24.3961L58.1112 23.9783C59.2758 23.9311 59.5659 25.5763 58.4553 25.9302L48.6257 29.0633C47.6972 29.3592 47.6972 30.6729 48.6257 30.9688L58.4553 34.1019C59.5659 34.4558 59.2758 36.101 58.1112 36.0538L47.8027 35.636C46.8291 35.5965 46.3798 36.831 47.151 37.4266L55.3163 43.7326C56.2388 44.4451 55.4035 45.8919 54.3253 45.4492L44.7814 41.5308C43.88 41.1607 43.0356 42.1671 43.5566 42.9905L49.0726 51.709C49.6959 52.694 48.4161 53.7678 47.5543 52.983L39.9262 46.0368C39.2057 45.3807 38.068 46.0376 38.2759 46.9896L40.4775 57.0688C40.7262 58.2076 39.1564 58.779 38.6149 57.7467L33.8226 48.6105C33.3699 47.7475 32.0762 47.9756 31.946 48.9414L30.5674 59.1657C30.4117 60.3209 28.7411 60.3209 28.5854 59.1657L27.2068 48.9414C27.0766 47.9756 25.7829 47.7475 25.3302 48.6105L20.5379 57.7467C19.9965 58.779 18.4266 58.2076 18.6754 57.0688L20.8769 46.9896C21.0849 46.0376 19.9472 45.3807 19.2267 46.0368L11.5985 52.983C10.7367 53.7678 9.45697 52.694 10.0802 51.709L15.5963 42.9905C16.1173 42.1671 15.2728 41.1607 14.3714 41.5308L4.82757 45.4492C3.74928 45.8919 2.914 44.4451 3.83654 43.7326L12.0018 37.4266C12.7731 36.831 12.3237 35.5965 11.3501 35.636L1.04168 36.0538C-0.122992 36.101 -0.41308 34.4558 0.697499 34.1019L10.5272 30.9688C11.4556 30.6729 11.4556 29.3592 10.5272 29.0633L0.697496 25.9302C-0.413082 25.5763 -0.122989 23.9311 1.04168 23.9783L11.3501 24.3961C12.3238 24.4356 12.7731 23.2011 12.0018 22.6055L3.83654 16.2995C2.914 15.587 3.74929 14.1403 4.82757 14.583L14.3714 18.5013C15.2728 18.8714 16.1173 17.865 15.5963 17.0416L10.0802 8.32313C9.45697 7.3381 10.7367 6.26428 11.5985 7.04908L19.2267 13.9953C19.9472 14.6514 21.0849 13.9945 20.8769 13.0425L18.6754 2.96326C18.4266 1.82449 19.9965 1.25312 20.5379 2.28536L25.3302 11.4216C25.7829 12.2846 27.0766 12.0565 27.2068 11.0907L28.5854 0.866378Z" fill="#F58634"/>
</svg>
