<svg width="35" height="36" viewBox="0 0 35 36" fill="none" xmlns="http://www.w3.org/2000/svg">
<path d="M3.5 17.7223C3.5 9.87984 9.77391 3.53306 17.5 3.53306C25.2261 3.53306 31.5 9.87984 31.5 17.7223C31.5 20.6093 30.6512 23.2896 29.1936 25.5275C28.6627 26.3428 28.887 27.4381 29.6946 27.9741C30.5022 28.51 31.5873 28.2836 32.1182 27.4684C33.94 24.6711 35 21.3192 35 17.7223C35 7.94051 27.1709 0 17.5 0C7.82912 0 0 7.94051 0 17.7223C0 21.3192 1.05996 24.6711 2.88176 27.4684C3.4127 28.2836 4.4978 28.51 5.30541 27.9741C6.11301 27.4381 6.3373 26.3428 5.80636 25.5275C4.34882 23.2896 3.5 20.6093 3.5 17.7223Z" fill="#F58634"/>
<path fill-rule="evenodd" clip-rule="evenodd" d="M10.5 17.6653C10.5 13.7628 13.634 10.5992 17.5 10.5992C21.366 10.5992 24.5 13.7628 24.5 17.6653C24.5 21.5678 21.366 24.7314 17.5 24.7314C13.634 24.7314 10.5 21.5678 10.5 17.6653ZM17.5 14.1323C15.567 14.1323 14 15.7141 14 17.6653C14 19.6166 15.567 21.1984 17.5 21.1984C19.433 21.1984 21 19.6166 21 17.6653C21 15.7141 19.433 14.1323 17.5 14.1323Z" fill="#F58634"/>
<path fill-rule="evenodd" clip-rule="evenodd" d="M10.4051 34.1378L10.4084 34.1289C10.4144 34.1129 10.4272 34.0799 10.4474 34.0323C10.4879 33.9368 10.5578 33.7844 10.6626 33.5939C10.8732 33.2112 11.2176 32.6882 11.7374 32.1634C12.7438 31.1475 14.4945 30.031 17.5 30.031C20.5055 30.031 22.2562 31.1475 23.2626 32.1634C23.7824 32.6882 24.1268 33.2112 24.3374 33.5939C24.4422 33.7844 24.5121 33.9368 24.5526 34.0323C24.5728 34.0799 24.5856 34.1129 24.5916 34.1289L24.5949 34.1378C24.9062 35.0537 25.8915 35.5468 26.8034 35.24C27.7203 34.9315 28.2158 33.931 27.9102 33.0055L26.25 33.5641C27.9102 33.0055 27.9095 33.0034 27.9095 33.0034L27.9088 33.0013L27.9072 32.9966L27.9036 32.9857L27.894 32.9582C27.8866 32.9372 27.8773 32.9111 27.8657 32.8803C27.8427 32.8187 27.8109 32.7378 27.7696 32.6405C27.6871 32.4462 27.5656 32.1845 27.397 31.8781C27.0607 31.2672 26.5301 30.4653 25.7374 29.6652C24.1188 28.0313 21.4945 26.498 17.5 26.498C13.5055 26.498 10.8812 28.0313 9.26256 29.6652C8.46993 30.4653 7.93925 31.2672 7.60304 31.8781C7.43442 32.1845 7.31287 32.4462 7.23036 32.6405C7.18905 32.7378 7.15735 32.8187 7.13429 32.8803C7.12275 32.9111 7.11335 32.9372 7.10599 32.9582L7.09643 32.9857L7.09275 32.9966L7.09119 33.0013L7.09048 33.0034C7.09048 33.0034 7.0898 33.0055 8.75 33.5641L7.0898 33.0055C6.78417 33.931 7.2797 34.9315 8.1966 35.24C9.1085 35.5468 10.0938 35.0537 10.4051 34.1378ZM26.25 33.5641C24.5898 34.1227 24.5904 34.1246 24.5904 34.1246L24.5898 34.1227L26.25 33.5641Z" fill="#F58634"/>
</svg>
