<svg width="1440" height="1076" viewBox="0 0 1440 1076" fill="none" xmlns="http://www.w3.org/2000/svg">
<path fill-rule="evenodd" clip-rule="evenodd" d="M1437.76 1075.37H1616.37V896.858H1456.26L1437.76 915.352V1075.37ZM1418.76 896.858L1437.02 915.114V1075.37H1258.41V896.858H1418.76ZM1437.02 878.143L1419.03 896.127H1258.41V717.612H1437.02V878.143ZM1455.99 896.127L1437.76 877.904V717.612H1616.37V896.127H1455.99ZM1617 1076V896.754V896.231V717.508V716.985V538.262V537.739V359.015V358.493V179.769V179.246L1617 0H1437.65H1437.13H1258.3H1257.78H1078.96H1078.43H899.609H899.086H720.262H719.739L540.914 0H540.391H361.566H361.044H182.219H181.696H2.87109H2.34839H-176.999L-177 179.246V358.493V359.015V538.262V716.985V896.231V896.754V1076H2.34839H2.87061H181.696H182.219H361.044H361.566H540.391H540.914L719.739 1076H720.262H899.086H899.609H1078.43H1078.96H1257.78H1258.3H1437.13H1437.65H1617ZM1257.68 1075.37H1079.06V896.858H1257.68V1075.37ZM899.714 1075.37H1078.33V896.858L899.714 896.858V1075.37ZM898.982 1075.37H720.366V896.858H898.982V1075.37ZM541.019 1075.37L719.634 1075.37V896.858H541.019V1075.37ZM540.287 1075.37H361.671V896.858H540.287V1075.37ZM182.323 1075.37H360.939V896.858L182.323 896.858V1075.37ZM181.592 1075.37H2.97583V896.858H181.592V1075.37ZM-176.373 1075.37H2.24316V896.858H-176.373V1075.37ZM1257.68 896.127H1079.06V717.612H1257.68V896.127ZM899.714 896.127L1078.33 896.127V717.612L917.68 717.612L899.714 735.568V896.127ZM881.303 717.612L898.982 735.281V896.127H720.366V717.612H881.303ZM898.982 698.358L880.51 716.82L880.571 716.881H720.366L720.366 538.366H898.982L898.982 698.358ZM918.412 716.881L918.473 716.82L899.714 698.071L899.714 538.366H1078.33V716.881L918.412 716.881ZM541.019 896.127H719.634V717.612H541.019V896.127ZM540.287 896.127H361.671V717.612L540.287 717.612V896.127ZM182.323 896.127L360.939 896.127V717.612H182.323V896.127ZM181.592 896.127H2.97583V767.138L3.27881 766.835L52.5295 717.612H181.592V896.127ZM53.2611 716.881H181.591V555.953L180.991 556.552L162.795 538.366H2.97534V666.501L3.27881 666.804L52.8376 716.335L53.3223 716.82L53.2611 716.881ZM2.97534 667.47L52.353 716.82L52.2919 716.881H21.7144L21.7755 716.82L2.97534 698.03V667.47ZM2.24365 666.87V538.366H-176.372V716.881H-47.6727L-47.7339 716.82L-47.2493 716.335L2.24365 666.87ZM-46.7035 716.881L-46.7646 716.82L2.24365 667.839V698.399L-16.1874 716.82L-16.1261 716.881H-46.7035ZM-46.9409 717.612H-176.373V896.127H2.24316V766.768L-46.9409 717.612ZM2.24316 765.8L-45.9717 717.612H-15.3944L2.24316 735.24V765.8ZM2.97583 766.169L51.5603 717.612H20.9827L2.97583 735.609V766.169ZM181.592 519.211L180.991 518.611L162.01 537.582L162.063 537.634H2.97583V359.12H181.592V519.211ZM199.92 537.634L199.973 537.582L182.323 519.942V359.12L360.939 359.12V537.634L199.92 537.634ZM182.323 555.221L199.188 538.366L360.939 538.366V716.881H182.323V555.221ZM1616.37 716.881H1437.76V538.366H1616.37V716.881ZM1258.41 716.881H1437.02V538.366H1258.41V716.881ZM1257.68 716.881H1079.06V538.366L1257.68 538.366V716.881ZM541.018 716.881H719.634L719.634 538.366H541.018V716.881ZM540.287 716.881L361.671 716.881V538.366H540.287V716.881ZM1616.37 537.634H1437.76V359.12H1616.37V537.634ZM1258.41 537.634H1437.02V359.12H1307.76L1307.99 359.352L1307.51 359.836L1258.41 408.909V537.634ZM1258.41 407.94L1307.02 359.352L1306.79 359.12H1276.21L1276.45 359.352L1258.41 377.38V407.94ZM1257.68 378.111V408.671L1257.47 408.883L1207.91 359.352L1208.14 359.12H1238.72L1238.48 359.352L1257.47 378.323L1257.68 378.111ZM1257.68 340.593L1257.47 340.381L1239.45 358.388H1208.87L1257.47 309.821L1257.68 310.033V340.593ZM1275.48 358.388L1258.41 341.324V310.764L1306.06 358.388H1275.48ZM1307.03 358.388H1437.02V179.873H1258.41V309.795L1307.03 358.388ZM1257.68 309.064V179.873L1079.06 179.873V358.388L1207.9 358.388L1256.98 309.337L1257.47 308.852L1257.68 309.064ZM1207.17 359.12L1079.06 359.12V537.634L1257.68 537.634V409.64L1257.47 409.852L1256.98 409.367L1207.42 359.836L1206.94 359.352L1207.17 359.12ZM899.714 537.634H1078.33V359.12H899.714V537.634ZM898.982 537.634H720.366V359.12H898.982V537.634ZM541.019 537.634H719.634V359.12H541.019V537.634ZM540.287 537.634H361.671V359.12H540.287V537.634ZM-176.373 537.634H2.24316V359.12H-176.373V537.634ZM1616.37 358.388H1437.76V179.873H1616.37V358.388ZM899.714 358.388H1078.33V179.873H899.714V358.388ZM898.982 358.388H720.366V179.873H898.982V358.388ZM541.019 358.388H719.634V179.873H541.019V358.388ZM540.287 358.388H361.671V179.873H540.287V358.388ZM182.323 358.388L360.939 358.388V179.873L182.323 179.873V358.388ZM181.592 358.388H2.97583V179.873H181.592V358.388ZM-176.373 358.388H2.24316V179.873H-176.373V358.388ZM1616.37 179.142H1437.76L1437.76 0.627075H1616.37L1616.37 179.142ZM1258.41 179.142H1437.02L1437.02 0.627075H1258.41V179.142ZM1257.68 179.142L1079.06 179.142V0.627075H1257.68V179.142ZM899.714 179.142H1078.33V0.627075H899.714V179.142ZM898.982 179.142H720.366V0.627075H898.982V179.142ZM541.019 179.142H719.634V0.627075L541.019 0.627075L541.019 179.142ZM540.287 179.142H361.671L361.671 0.627075H540.287L540.287 179.142ZM182.323 179.142L360.939 179.142L360.939 0.627075H182.323L182.323 179.142ZM181.592 179.142H2.97583L2.97583 0.627075H181.592L181.592 179.142ZM-176.372 179.142H2.24365L2.24365 0.627075H-176.372L-176.372 179.142Z" fill="url(#paint0_linear_4_768)" fill-opacity="0.4"/>
<defs>
<linearGradient id="paint0_linear_4_768" x1="756.5" y1="1076" x2="749.5" y2="-1941" gradientUnits="userSpaceOnUse">
<stop stop-opacity="0.2"/>
<stop offset="1" stop-opacity="0"/>
</linearGradient>
</defs>
</svg>
